<svg width="390" height="70" viewBox="0 0 390 70" fill="none" xmlns="http://www.w3.org/2000/svg">
<path d="M63.096 69V7.56L34.488 55.848H32.184L3.576 7.56V69H0.216V0.839996H3.288L33.336 51.528L63.384 0.839996H66.456V69H63.096ZM106.568 0.839996H109.448L138.728 69H135.176L125.096 45.48H90.9203L80.8403 69H77.1923L106.568 0.839996ZM124.04 42.6L108.008 5.064L91.8803 42.6H124.04ZM149.654 69V0.839996H177.686C180.566 0.839996 183.19 1.448 185.558 2.664C187.926 3.816 189.974 5.416 191.702 7.464C193.43 9.448 194.774 11.688 195.734 14.184C196.694 16.616 197.174 19.112 197.174 21.672C197.174 25.128 196.47 28.36 195.062 31.368C193.654 34.376 191.702 36.872 189.206 38.856C186.71 40.84 183.798 41.992 180.47 42.312L197.558 69H193.718L176.822 42.696H153.014V69H149.654ZM153.014 39.624H178.262C181.462 39.624 184.214 38.76 186.518 37.032C188.886 35.304 190.71 33.064 191.99 30.312C193.27 27.56 193.91 24.68 193.91 21.672C193.91 18.6 193.174 15.72 191.702 13.032C190.23 10.28 188.246 8.072 185.75 6.408C183.318 4.744 180.598 3.912 177.59 3.912H153.014V39.624ZM211.529 69V0.839996H214.889V43.752L256.552 0.839996H260.681L231.977 30.696L262.025 69H258.089L229.673 32.808L214.889 47.88V69H211.529ZM298.884 69.48C293.508 69.48 288.996 68.52 285.348 66.6C281.7 64.616 278.788 61.992 276.612 58.728C274.5 55.4 272.964 51.688 272.004 47.592C271.108 43.496 270.66 39.304 270.66 35.016V0.839996H274.02V35.016C274.02 38.92 274.404 42.76 275.172 46.536C276.004 50.312 277.348 53.704 279.204 56.712C281.06 59.656 283.588 61.992 286.788 63.72C289.988 65.448 293.988 66.312 298.788 66.312C303.652 66.312 307.684 65.416 310.884 63.624C314.148 61.832 316.708 59.432 318.564 56.424C320.42 53.416 321.732 50.056 322.5 46.344C323.268 42.632 323.652 38.856 323.652 35.016V0.839996H326.916V35.016C326.916 39.496 326.436 43.816 325.476 47.976C324.516 52.136 322.948 55.816 320.772 59.016C318.596 62.216 315.716 64.776 312.132 66.696C308.548 68.552 304.132 69.48 298.884 69.48ZM383.831 10.92C382.551 9.576 381.239 8.424 379.895 7.464C378.551 6.504 377.111 5.736 375.575 5.16C374.039 4.584 372.407 4.168 370.679 3.912C368.951 3.592 367.063 3.432 365.015 3.432C357.783 3.432 352.535 4.808 349.271 7.56C346.007 10.312 344.375 13.992 344.375 18.6C344.375 21.736 345.079 24.2 346.487 25.992C347.895 27.784 350.135 29.224 353.207 30.312C356.279 31.336 360.247 32.36 365.111 33.384C370.103 34.408 374.423 35.592 378.071 36.936C381.719 38.28 384.535 40.104 386.519 42.408C388.503 44.712 389.495 47.88 389.495 51.912C389.495 54.792 388.919 57.352 387.767 59.592C386.679 61.768 385.079 63.592 382.967 65.064C380.855 66.536 378.295 67.656 375.287 68.424C372.343 69.128 369.047 69.48 365.399 69.48C361.751 69.48 358.359 69.128 355.223 68.424C352.087 67.656 349.143 66.504 346.391 64.968C343.639 63.432 341.047 61.48 338.615 59.112L340.631 56.616C342.167 58.28 343.831 59.752 345.623 61.032C347.479 62.248 349.431 63.272 351.479 64.104C353.591 64.936 355.799 65.576 358.103 66.024C360.471 66.408 362.935 66.6 365.495 66.6C371.895 66.6 376.919 65.416 380.567 63.048C384.279 60.616 386.135 57.064 386.135 52.392C386.135 49.128 385.335 46.536 383.735 44.616C382.135 42.632 379.703 41.032 376.439 39.816C373.175 38.536 369.015 37.384 363.959 36.36C359.031 35.336 354.839 34.216 351.383 33C347.991 31.784 345.399 30.088 343.607 27.912C341.879 25.736 341.015 22.792 341.015 19.08C341.015 15.048 342.007 11.656 343.991 8.904C345.975 6.088 348.759 3.976 352.343 2.568C355.927 1.096 360.119 0.359997 364.919 0.359997C367.863 0.359997 370.551 0.647997 372.983 1.224C375.415 1.8 377.655 2.664 379.703 3.816C381.815 4.968 383.799 6.504 385.655 8.424L383.831 10.92Z" fill="url(#paint0_linear_75_4)"/>
<defs>
<linearGradient id="paint0_linear_75_4" x1="196.5" y1="-37" x2="196.5" y2="107" gradientUnits="userSpaceOnUse">
<stop stop-color="#FFFF92"/>
<stop offset="1" stop-color="#5867B6"/>
</linearGradient>
</defs>
</svg>
