<svg width="376" height="60" viewBox="0 0 376 60" fill="none" xmlns="http://www.w3.org/2000/svg">
<path d="M6.24519 18.24C5.34919 18.24 4.51719 18.072 3.74919 17.736C2.99719 17.384 2.34119 16.912 1.78119 16.32C1.23719 15.712 0.813188 15.024 0.509188 14.256C0.205188 13.472 0.0531875 12.648 0.0531875 11.784C0.0531875 10.888 0.205188 10.056 0.509188 9.288C0.813188 8.504 1.24519 7.816 1.80519 7.224C2.36519 6.616 3.02119 6.144 3.77319 5.808C4.54119 5.456 5.37319 5.28 6.26919 5.28C7.16519 5.28 7.98919 5.456 8.74119 5.808C9.49319 6.144 10.1492 6.616 10.7092 7.224C11.2692 7.816 11.7012 8.504 12.0052 9.288C12.3092 10.056 12.4612 10.888 12.4612 11.784C12.4612 12.648 12.3092 13.472 12.0052 14.256C11.7012 15.024 11.2692 15.712 10.7092 16.32C10.1652 16.912 9.50919 17.384 8.74119 17.736C7.98919 18.072 7.15719 18.24 6.24519 18.24ZM1.70919 11.808C1.70919 12.736 1.90919 13.584 2.30919 14.352C2.72519 15.104 3.27719 15.704 3.96519 16.152C4.65319 16.584 5.41319 16.8 6.24519 16.8C7.07719 16.8 7.83719 16.576 8.52519 16.128C9.21319 15.68 9.76519 15.072 10.1812 14.304C10.5972 13.52 10.8052 12.672 10.8052 11.76C10.8052 10.832 10.5972 9.984 10.1812 9.216C9.76519 8.448 9.21319 7.84 8.52519 7.392C7.83719 6.944 7.07719 6.72 6.24519 6.72C5.41319 6.72 4.65319 6.952 3.96519 7.416C3.29319 7.88 2.74919 8.496 2.33319 9.264C1.91719 10.016 1.70919 10.864 1.70919 11.808ZM25.7026 18H24.0706V11.016C24.0706 9.544 23.8546 8.472 23.4226 7.8C22.9906 7.112 22.3106 6.768 21.3826 6.768C20.7426 6.768 20.1106 6.928 19.4866 7.248C18.8626 7.552 18.3106 7.976 17.8306 8.52C17.3666 9.048 17.0306 9.656 16.8226 10.344V18H15.1906V5.496H16.6786V8.328C17.0146 7.72 17.4546 7.192 17.9986 6.744C18.5426 6.28 19.1586 5.92 19.8466 5.664C20.5346 5.408 21.2466 5.28 21.9826 5.28C22.6706 5.28 23.2546 5.408 23.7346 5.664C24.2146 5.92 24.5986 6.288 24.8866 6.768C25.1746 7.232 25.3826 7.8 25.5106 8.472C25.6386 9.128 25.7026 9.864 25.7026 10.68V18ZM34.5828 18.24C33.6868 18.24 32.8548 18.072 32.0868 17.736C31.3188 17.384 30.6548 16.912 30.0948 16.32C29.5348 15.712 29.0948 15.016 28.7748 14.232C28.4708 13.448 28.3188 12.608 28.3188 11.712C28.3188 10.544 28.5828 9.472 29.1108 8.496C29.6548 7.52 30.3988 6.744 31.3428 6.168C32.2868 5.576 33.3588 5.28 34.5588 5.28C35.7908 5.28 36.8628 5.576 37.7748 6.168C38.7028 6.76 39.4308 7.544 39.9588 8.52C40.4868 9.48 40.7508 10.536 40.7508 11.688C40.7508 11.816 40.7508 11.944 40.7508 12.072C40.7508 12.184 40.7428 12.272 40.7268 12.336H30.0228C30.1028 13.232 30.3508 14.032 30.7668 14.736C31.1988 15.424 31.7508 15.976 32.4228 16.392C33.1108 16.792 33.8548 16.992 34.6548 16.992C35.4708 16.992 36.2388 16.784 36.9588 16.368C37.6948 15.952 38.2068 15.408 38.4948 14.736L39.9108 15.12C39.6548 15.712 39.2628 16.248 38.7348 16.728C38.2068 17.208 37.5828 17.584 36.8628 17.856C36.1588 18.112 35.3988 18.24 34.5828 18.24ZM29.9748 11.16H39.2148C39.1508 10.248 38.9028 9.448 38.4708 8.76C38.0548 8.072 37.5028 7.536 36.8148 7.152C36.1428 6.752 35.3988 6.552 34.5828 6.552C33.7668 6.552 33.0228 6.752 32.3508 7.152C31.6788 7.536 31.1268 8.08 30.6948 8.784C30.2788 9.472 30.0388 10.264 29.9748 11.16ZM54.7139 18.24C53.8179 18.24 52.9859 18.072 52.2179 17.736C51.4659 17.384 50.8099 16.912 50.2499 16.32C49.7059 15.712 49.2819 15.024 48.9779 14.256C48.6739 13.472 48.5219 12.648 48.5219 11.784C48.5219 10.888 48.6739 10.056 48.9779 9.288C49.2819 8.504 49.7139 7.816 50.2739 7.224C50.8339 6.616 51.4899 6.144 52.2419 5.808C53.0099 5.456 53.8419 5.28 54.7379 5.28C55.6339 5.28 56.4579 5.456 57.2099 5.808C57.9619 6.144 58.6179 6.616 59.1779 7.224C59.7379 7.816 60.1699 8.504 60.4739 9.288C60.7779 10.056 60.9299 10.888 60.9299 11.784C60.9299 12.648 60.7779 13.472 60.4739 14.256C60.1699 15.024 59.7379 15.712 59.1779 16.32C58.6339 16.912 57.9779 17.384 57.2099 17.736C56.4579 18.072 55.6259 18.24 54.7139 18.24ZM50.1779 11.808C50.1779 12.736 50.3779 13.584 50.7779 14.352C51.1939 15.104 51.7459 15.704 52.4339 16.152C53.1219 16.584 53.8819 16.8 54.7139 16.8C55.5459 16.8 56.3059 16.576 56.9939 16.128C57.6819 15.68 58.2339 15.072 58.6499 14.304C59.0659 13.52 59.2739 12.672 59.2739 11.76C59.2739 10.832 59.0659 9.984 58.6499 9.216C58.2339 8.448 57.6819 7.84 56.9939 7.392C56.3059 6.944 55.5459 6.72 54.7139 6.72C53.8819 6.72 53.1219 6.952 52.4339 7.416C51.7619 7.88 51.2179 8.496 50.8019 9.264C50.3859 10.016 50.1779 10.864 50.1779 11.808ZM64.0484 18V6.792H62.3204V5.496H64.0484V5.16C64.0484 4.136 64.1924 3.256 64.4804 2.52C64.7844 1.784 65.2084 1.224 65.7524 0.839999C66.3124 0.44 66.9684 0.24 67.7204 0.24C68.2164 0.24 68.6964 0.312 69.1604 0.456C69.6244 0.599999 70.0244 0.791999 70.3604 1.032L69.8564 2.208C69.6484 2.032 69.3764 1.896 69.0404 1.8C68.7044 1.704 68.3684 1.656 68.0324 1.656C67.2804 1.656 66.6964 1.952 66.2804 2.544C65.8804 3.136 65.6804 3.992 65.6804 5.112V5.496H69.1364V6.792H65.6804V18H64.0484ZM82.9484 17.4C82.8204 17.448 82.6204 17.536 82.3484 17.664C82.0764 17.792 81.7484 17.904 81.3644 18C80.9804 18.096 80.5644 18.144 80.1164 18.144C79.6524 18.144 79.2124 18.056 78.7964 17.88C78.3964 17.704 78.0764 17.44 77.8364 17.088C77.5964 16.72 77.4764 16.272 77.4764 15.744V6.792H75.7484V5.496H77.4764V1.272H79.1084V5.496H81.9884V6.792H79.1084V15.288C79.1404 15.736 79.3004 16.072 79.5884 16.296C79.8924 16.52 80.2364 16.632 80.6204 16.632C81.0684 16.632 81.4764 16.56 81.8444 16.416C82.2124 16.256 82.4364 16.144 82.5164 16.08L82.9484 17.4ZM95.4995 18H93.8675V11.016C93.8675 9.608 93.6195 8.552 93.1235 7.848C92.6275 7.128 91.9155 6.768 90.9875 6.768C90.3795 6.768 89.7715 6.928 89.1635 7.248C88.5715 7.552 88.0435 7.976 87.5795 8.52C87.1315 9.048 86.8115 9.656 86.6195 10.344V18H84.9875V0.48H86.6195V8.328C87.1155 7.4 87.8035 6.664 88.6835 6.12C89.5795 5.56 90.5315 5.28 91.5395 5.28C92.2595 5.28 92.8675 5.408 93.3635 5.664C93.8755 5.92 94.2835 6.296 94.5875 6.792C94.9075 7.272 95.1395 7.84 95.2835 8.496C95.4275 9.136 95.4995 9.864 95.4995 10.68V18ZM104.38 18.24C103.484 18.24 102.652 18.072 101.884 17.736C101.116 17.384 100.452 16.912 99.8917 16.32C99.3317 15.712 98.8917 15.016 98.5717 14.232C98.2677 13.448 98.1157 12.608 98.1157 11.712C98.1157 10.544 98.3797 9.472 98.9077 8.496C99.4517 7.52 100.196 6.744 101.14 6.168C102.084 5.576 103.156 5.28 104.356 5.28C105.588 5.28 106.66 5.576 107.572 6.168C108.5 6.76 109.228 7.544 109.756 8.52C110.284 9.48 110.548 10.536 110.548 11.688C110.548 11.816 110.548 11.944 110.548 12.072C110.548 12.184 110.54 12.272 110.524 12.336H99.8197C99.8997 13.232 100.148 14.032 100.564 14.736C100.996 15.424 101.548 15.976 102.22 16.392C102.908 16.792 103.652 16.992 104.452 16.992C105.268 16.992 106.036 16.784 106.756 16.368C107.492 15.952 108.004 15.408 108.292 14.736L109.708 15.12C109.452 15.712 109.06 16.248 108.532 16.728C108.004 17.208 107.38 17.584 106.66 17.856C105.956 18.112 105.196 18.24 104.38 18.24ZM99.7717 11.16H109.012C108.948 10.248 108.7 9.448 108.268 8.76C107.852 8.072 107.3 7.536 106.612 7.152C105.94 6.752 105.196 6.552 104.38 6.552C103.564 6.552 102.82 6.752 102.148 7.152C101.476 7.536 100.924 8.08 100.492 8.784C100.076 9.472 99.8357 10.264 99.7717 11.16ZM125.303 18.24C124.327 18.24 123.423 17.992 122.591 17.496C121.759 16.984 121.111 16.344 120.647 15.576V18H119.183V0.48H120.815V8.112C121.375 7.264 122.047 6.584 122.831 6.072C123.615 5.544 124.527 5.28 125.567 5.28C126.447 5.28 127.231 5.464 127.919 5.832C128.623 6.2 129.223 6.696 129.719 7.32C130.215 7.928 130.591 8.624 130.847 9.408C131.103 10.176 131.231 10.968 131.231 11.784C131.231 12.664 131.079 13.488 130.775 14.256C130.487 15.024 130.071 15.712 129.527 16.32C128.983 16.912 128.351 17.384 127.631 17.736C126.927 18.072 126.151 18.24 125.303 18.24ZM124.919 16.8C125.591 16.8 126.215 16.664 126.791 16.392C127.367 16.12 127.863 15.744 128.279 15.264C128.695 14.784 129.015 14.248 129.239 13.656C129.463 13.048 129.575 12.424 129.575 11.784C129.575 10.904 129.383 10.08 128.999 9.312C128.631 8.528 128.111 7.904 127.439 7.44C126.783 6.96 126.007 6.72 125.111 6.72C124.471 6.72 123.871 6.864 123.311 7.152C122.767 7.44 122.279 7.824 121.847 8.304C121.431 8.768 121.087 9.28 120.815 9.84V13.728C120.879 14.16 121.047 14.568 121.319 14.952C121.591 15.32 121.927 15.64 122.327 15.912C122.743 16.184 123.175 16.4 123.623 16.56C124.071 16.72 124.503 16.8 124.919 16.8ZM133.995 18V5.496H135.627V18H133.995ZM133.995 2.88V0.48H135.627V2.88H133.995ZM144.238 18.168C143.39 18.168 142.606 17.992 141.886 17.64C141.166 17.288 140.542 16.816 140.014 16.224C139.502 15.616 139.102 14.928 138.814 14.16C138.526 13.392 138.382 12.6 138.382 11.784C138.382 10.904 138.518 10.08 138.79 9.312C139.078 8.528 139.478 7.832 139.99 7.224C140.518 6.616 141.134 6.144 141.838 5.808C142.542 5.456 143.326 5.28 144.19 5.28C145.262 5.28 146.19 5.552 146.974 6.096C147.774 6.64 148.446 7.312 148.99 8.112V5.496H150.454V18.048C150.454 19.2 150.174 20.168 149.614 20.952C149.07 21.752 148.326 22.352 147.382 22.752C146.454 23.152 145.438 23.352 144.334 23.352C142.91 23.352 141.758 23.096 140.878 22.584C139.998 22.072 139.278 21.384 138.718 20.52L139.726 19.728C140.222 20.512 140.878 21.096 141.694 21.48C142.526 21.864 143.406 22.056 144.334 22.056C145.15 22.056 145.894 21.904 146.566 21.6C147.254 21.312 147.798 20.872 148.198 20.28C148.614 19.688 148.822 18.944 148.822 18.048V15.576C148.342 16.36 147.686 16.992 146.854 17.472C146.022 17.936 145.15 18.168 144.238 18.168ZM144.694 16.8C145.19 16.8 145.662 16.712 146.11 16.536C146.574 16.36 146.998 16.128 147.382 15.84C147.766 15.536 148.086 15.2 148.342 14.832C148.598 14.464 148.758 14.088 148.822 13.704V9.84C148.582 9.232 148.238 8.696 147.79 8.232C147.342 7.752 146.83 7.384 146.254 7.128C145.694 6.856 145.11 6.72 144.502 6.72C143.798 6.72 143.166 6.872 142.606 7.176C142.062 7.464 141.598 7.856 141.214 8.352C140.846 8.832 140.558 9.376 140.35 9.984C140.142 10.592 140.038 11.2 140.038 11.808C140.038 12.48 140.158 13.12 140.398 13.728C140.638 14.32 140.966 14.856 141.382 15.336C141.814 15.8 142.31 16.16 142.87 16.416C143.446 16.672 144.054 16.8 144.694 16.8ZM159.074 18.168C158.226 18.168 157.442 17.992 156.722 17.64C156.002 17.288 155.378 16.816 154.85 16.224C154.338 15.616 153.938 14.928 153.65 14.16C153.362 13.392 153.218 12.6 153.218 11.784C153.218 10.904 153.354 10.08 153.626 9.312C153.914 8.528 154.314 7.832 154.826 7.224C155.354 6.616 155.97 6.144 156.674 5.808C157.378 5.456 158.162 5.28 159.026 5.28C160.098 5.28 161.026 5.552 161.81 6.096C162.61 6.64 163.282 7.312 163.826 8.112V5.496H165.29V18.048C165.29 19.2 165.01 20.168 164.45 20.952C163.906 21.752 163.162 22.352 162.218 22.752C161.29 23.152 160.274 23.352 159.17 23.352C157.746 23.352 156.594 23.096 155.714 22.584C154.834 22.072 154.114 21.384 153.554 20.52L154.562 19.728C155.058 20.512 155.714 21.096 156.53 21.48C157.362 21.864 158.242 22.056 159.17 22.056C159.986 22.056 160.73 21.904 161.402 21.6C162.09 21.312 162.634 20.872 163.034 20.28C163.45 19.688 163.658 18.944 163.658 18.048V15.576C163.178 16.36 162.522 16.992 161.69 17.472C160.858 17.936 159.986 18.168 159.074 18.168ZM159.53 16.8C160.026 16.8 160.498 16.712 160.946 16.536C161.41 16.36 161.834 16.128 162.218 15.84C162.602 15.536 162.922 15.2 163.178 14.832C163.434 14.464 163.594 14.088 163.658 13.704V9.84C163.418 9.232 163.074 8.696 162.626 8.232C162.178 7.752 161.666 7.384 161.09 7.128C160.53 6.856 159.946 6.72 159.338 6.72C158.634 6.72 158.002 6.872 157.442 7.176C156.898 7.464 156.434 7.856 156.05 8.352C155.682 8.832 155.394 9.376 155.186 9.984C154.978 10.592 154.874 11.2 154.874 11.808C154.874 12.48 154.994 13.12 155.234 13.728C155.474 14.32 155.802 14.856 156.218 15.336C156.65 15.8 157.146 16.16 157.706 16.416C158.282 16.672 158.89 16.8 159.53 16.8ZM174.294 18.24C173.398 18.24 172.566 18.072 171.798 17.736C171.03 17.384 170.366 16.912 169.806 16.32C169.246 15.712 168.806 15.016 168.486 14.232C168.182 13.448 168.03 12.608 168.03 11.712C168.03 10.544 168.294 9.472 168.822 8.496C169.366 7.52 170.11 6.744 171.054 6.168C171.998 5.576 173.07 5.28 174.27 5.28C175.502 5.28 176.574 5.576 177.486 6.168C178.414 6.76 179.142 7.544 179.67 8.52C180.198 9.48 180.462 10.536 180.462 11.688C180.462 11.816 180.462 11.944 180.462 12.072C180.462 12.184 180.454 12.272 180.438 12.336H169.734C169.814 13.232 170.062 14.032 170.478 14.736C170.91 15.424 171.462 15.976 172.134 16.392C172.822 16.792 173.566 16.992 174.366 16.992C175.182 16.992 175.95 16.784 176.67 16.368C177.406 15.952 177.918 15.408 178.206 14.736L179.622 15.12C179.366 15.712 178.974 16.248 178.446 16.728C177.918 17.208 177.294 17.584 176.574 17.856C175.87 18.112 175.11 18.24 174.294 18.24ZM169.686 11.16H178.926C178.862 10.248 178.614 9.448 178.182 8.76C177.766 8.072 177.214 7.536 176.526 7.152C175.854 6.752 175.11 6.552 174.294 6.552C173.478 6.552 172.734 6.752 172.062 7.152C171.39 7.536 170.838 8.08 170.406 8.784C169.99 9.472 169.75 10.264 169.686 11.16ZM187.084 18.24C186.06 18.24 185.108 18.072 184.228 17.736C183.348 17.4 182.588 16.888 181.948 16.2L182.62 15.048C183.324 15.704 184.028 16.184 184.732 16.488C185.452 16.776 186.212 16.92 187.012 16.92C187.988 16.92 188.78 16.728 189.388 16.344C189.996 15.944 190.3 15.376 190.3 14.64C190.3 14.144 190.148 13.768 189.844 13.512C189.556 13.24 189.132 13.024 188.572 12.864C188.028 12.688 187.372 12.504 186.604 12.312C185.74 12.072 185.012 11.824 184.42 11.568C183.844 11.296 183.404 10.96 183.1 10.56C182.812 10.144 182.668 9.608 182.668 8.952C182.668 8.136 182.868 7.464 183.268 6.936C183.684 6.392 184.244 5.984 184.948 5.712C185.668 5.424 186.468 5.28 187.348 5.28C188.308 5.28 189.156 5.432 189.892 5.736C190.628 6.04 191.228 6.464 191.692 7.008L190.9 8.112C190.452 7.6 189.916 7.224 189.292 6.984C188.684 6.728 188.004 6.6 187.252 6.6C186.74 6.6 186.252 6.672 185.788 6.816C185.324 6.944 184.94 7.168 184.636 7.488C184.348 7.792 184.204 8.216 184.204 8.76C184.204 9.208 184.316 9.56 184.54 9.816C184.764 10.056 185.1 10.264 185.548 10.44C185.996 10.6 186.548 10.776 187.204 10.968C188.148 11.224 188.972 11.488 189.676 11.76C190.38 12.016 190.924 12.352 191.308 12.768C191.692 13.184 191.884 13.768 191.884 14.52C191.884 15.688 191.444 16.6 190.564 17.256C189.684 17.912 188.524 18.24 187.084 18.24ZM200.581 17.4C200.453 17.448 200.253 17.536 199.981 17.664C199.709 17.792 199.381 17.904 198.997 18C198.613 18.096 198.197 18.144 197.749 18.144C197.285 18.144 196.845 18.056 196.429 17.88C196.029 17.704 195.709 17.44 195.469 17.088C195.229 16.72 195.109 16.272 195.109 15.744V6.792H193.381V5.496H195.109V1.272H196.741V5.496H199.621V6.792H196.741V15.288C196.773 15.736 196.933 16.072 197.221 16.296C197.525 16.52 197.869 16.632 198.253 16.632C198.701 16.632 199.109 16.56 199.477 16.416C199.845 16.256 200.069 16.144 200.149 16.08L200.581 17.4ZM208.078 5.472V0.816H209.494V5.472H208.078ZM210.358 5.472V0.816H211.774V5.472H210.358ZM233.83 18H232.198V11.016C232.198 9.56 231.966 8.488 231.502 7.8C231.038 7.112 230.35 6.768 229.438 6.768C228.494 6.768 227.646 7.104 226.894 7.776C226.158 8.448 225.638 9.312 225.334 10.368V18H223.702V11.016C223.702 9.544 223.478 8.472 223.03 7.8C222.582 7.112 221.894 6.768 220.966 6.768C220.038 6.768 219.198 7.096 218.446 7.752C217.694 8.408 217.166 9.272 216.862 10.344V18H215.23V5.496H216.718V8.328C217.246 7.352 217.918 6.6 218.734 6.072C219.566 5.544 220.486 5.28 221.494 5.28C222.534 5.28 223.374 5.576 224.014 6.168C224.654 6.76 225.046 7.536 225.19 8.496C225.766 7.44 226.454 6.64 227.254 6.096C228.07 5.552 228.99 5.28 230.014 5.28C230.718 5.28 231.31 5.408 231.79 5.664C232.286 5.92 232.678 6.288 232.966 6.768C233.27 7.232 233.486 7.8 233.614 8.472C233.758 9.128 233.83 9.864 233.83 10.68V18ZM236.276 14.4C236.276 13.616 236.5 12.944 236.948 12.384C237.396 11.808 238.012 11.368 238.796 11.064C239.596 10.744 240.516 10.584 241.556 10.584C242.164 10.584 242.796 10.632 243.452 10.728C244.108 10.824 244.692 10.968 245.204 11.16V10.104C245.204 9.048 244.892 8.208 244.268 7.584C243.644 6.96 242.78 6.648 241.676 6.648C241.004 6.648 240.34 6.776 239.684 7.032C239.044 7.272 238.372 7.632 237.668 8.112L237.044 6.96C237.86 6.4 238.66 5.984 239.444 5.712C240.228 5.424 241.028 5.28 241.844 5.28C243.38 5.28 244.596 5.72 245.492 6.6C246.388 7.48 246.836 8.696 246.836 10.248V16.032C246.836 16.256 246.884 16.424 246.98 16.536C247.076 16.632 247.228 16.688 247.436 16.704V18C247.26 18.016 247.108 18.032 246.98 18.048C246.852 18.064 246.756 18.064 246.692 18.048C246.292 18.032 245.988 17.904 245.78 17.664C245.572 17.424 245.46 17.168 245.444 16.896L245.42 15.984C244.86 16.704 244.132 17.264 243.236 17.664C242.34 18.048 241.428 18.24 240.5 18.24C239.7 18.24 238.972 18.072 238.316 17.736C237.676 17.384 237.172 16.92 236.804 16.344C236.452 15.752 236.276 15.104 236.276 14.4ZM244.652 15.36C244.828 15.136 244.964 14.92 245.06 14.712C245.156 14.504 245.204 14.32 245.204 14.16V12.336C244.66 12.128 244.092 11.968 243.5 11.856C242.924 11.744 242.34 11.688 241.748 11.688C240.58 11.688 239.636 11.92 238.916 12.384C238.196 12.848 237.836 13.48 237.836 14.28C237.836 14.744 237.956 15.184 238.196 15.6C238.436 16 238.788 16.336 239.252 16.608C239.716 16.864 240.26 16.992 240.884 16.992C241.668 16.992 242.396 16.84 243.068 16.536C243.756 16.232 244.284 15.84 244.652 15.36ZM254.467 18.24C253.443 18.24 252.491 18.072 251.611 17.736C250.731 17.4 249.971 16.888 249.331 16.2L250.003 15.048C250.707 15.704 251.411 16.184 252.115 16.488C252.835 16.776 253.595 16.92 254.395 16.92C255.371 16.92 256.163 16.728 256.771 16.344C257.379 15.944 257.683 15.376 257.683 14.64C257.683 14.144 257.531 13.768 257.227 13.512C256.939 13.24 256.515 13.024 255.955 12.864C255.411 12.688 254.755 12.504 253.987 12.312C253.123 12.072 252.395 11.824 251.803 11.568C251.227 11.296 250.787 10.96 250.483 10.56C250.195 10.144 250.051 9.608 250.051 8.952C250.051 8.136 250.251 7.464 250.651 6.936C251.067 6.392 251.627 5.984 252.331 5.712C253.051 5.424 253.851 5.28 254.73 5.28C255.691 5.28 256.539 5.432 257.275 5.736C258.011 6.04 258.611 6.464 259.075 7.008L258.283 8.112C257.835 7.6 257.299 7.224 256.675 6.984C256.067 6.728 255.387 6.6 254.635 6.6C254.123 6.6 253.635 6.672 253.171 6.816C252.707 6.944 252.323 7.168 252.019 7.488C251.731 7.792 251.587 8.216 251.587 8.76C251.587 9.208 251.699 9.56 251.923 9.816C252.147 10.056 252.483 10.264 252.931 10.44C253.379 10.6 253.931 10.776 254.587 10.968C255.531 11.224 256.355 11.488 257.059 11.76C257.763 12.016 258.307 12.352 258.691 12.768C259.075 13.184 259.267 13.768 259.267 14.52C259.267 15.688 258.827 16.6 257.947 17.256C257.067 17.912 255.907 18.24 254.467 18.24ZM266.068 18.24C265.044 18.24 264.092 18.072 263.212 17.736C262.332 17.4 261.572 16.888 260.932 16.2L261.604 15.048C262.308 15.704 263.012 16.184 263.716 16.488C264.436 16.776 265.196 16.92 265.996 16.92C266.972 16.92 267.764 16.728 268.372 16.344C268.98 15.944 269.284 15.376 269.284 14.64C269.284 14.144 269.132 13.768 268.828 13.512C268.54 13.24 268.116 13.024 267.556 12.864C267.012 12.688 266.356 12.504 265.588 12.312C264.724 12.072 263.996 11.824 263.404 11.568C262.828 11.296 262.388 10.96 262.084 10.56C261.796 10.144 261.652 9.608 261.652 8.952C261.652 8.136 261.852 7.464 262.252 6.936C262.668 6.392 263.228 5.984 263.932 5.712C264.652 5.424 265.452 5.28 266.332 5.28C267.292 5.28 268.14 5.432 268.876 5.736C269.612 6.04 270.212 6.464 270.676 7.008L269.884 8.112C269.436 7.6 268.9 7.224 268.276 6.984C267.668 6.728 266.988 6.6 266.236 6.6C265.724 6.6 265.236 6.672 264.772 6.816C264.308 6.944 263.924 7.168 263.62 7.488C263.332 7.792 263.188 8.216 263.188 8.76C263.188 9.208 263.3 9.56 263.524 9.816C263.748 10.056 264.084 10.264 264.532 10.44C264.98 10.6 265.532 10.776 266.188 10.968C267.132 11.224 267.956 11.488 268.66 11.76C269.364 12.016 269.908 12.352 270.292 12.768C270.676 13.184 270.868 13.768 270.868 14.52C270.868 15.688 270.428 16.6 269.548 17.256C268.668 17.912 267.508 18.24 266.068 18.24ZM298.283 18H296.651V11.016C296.651 9.56 296.419 8.488 295.955 7.8C295.491 7.112 294.803 6.768 293.891 6.768C292.947 6.768 292.099 7.104 291.347 7.776C290.611 8.448 290.091 9.312 289.787 10.368V18H288.155V11.016C288.155 9.544 287.931 8.472 287.483 7.8C287.035 7.112 286.347 6.768 285.419 6.768C284.491 6.768 283.651 7.096 282.899 7.752C282.147 8.408 281.619 9.272 281.315 10.344V18H279.683V5.496H281.171V8.328C281.699 7.352 282.371 6.6 283.187 6.072C284.019 5.544 284.939 5.28 285.947 5.28C286.987 5.28 287.827 5.576 288.467 6.168C289.107 6.76 289.499 7.536 289.643 8.496C290.219 7.44 290.907 6.64 291.707 6.096C292.523 5.552 293.443 5.28 294.467 5.28C295.171 5.28 295.763 5.408 296.243 5.664C296.739 5.92 297.131 6.288 297.419 6.768C297.723 7.232 297.939 7.8 298.067 8.472C298.211 9.128 298.283 9.864 298.283 10.68V18ZM307.066 18.24C306.17 18.24 305.338 18.072 304.57 17.736C303.818 17.384 303.162 16.912 302.602 16.32C302.058 15.712 301.634 15.024 301.33 14.256C301.026 13.472 300.874 12.648 300.874 11.784C300.874 10.888 301.026 10.056 301.33 9.288C301.634 8.504 302.066 7.816 302.626 7.224C303.186 6.616 303.842 6.144 304.594 5.808C305.362 5.456 306.194 5.28 307.09 5.28C307.986 5.28 308.81 5.456 309.562 5.808C310.314 6.144 310.97 6.616 311.53 7.224C312.09 7.816 312.522 8.504 312.826 9.288C313.13 10.056 313.282 10.888 313.282 11.784C313.282 12.648 313.13 13.472 312.826 14.256C312.522 15.024 312.09 15.712 311.53 16.32C310.986 16.912 310.33 17.384 309.562 17.736C308.81 18.072 307.978 18.24 307.066 18.24ZM302.53 11.808C302.53 12.736 302.73 13.584 303.13 14.352C303.546 15.104 304.098 15.704 304.786 16.152C305.474 16.584 306.234 16.8 307.066 16.8C307.898 16.8 308.658 16.576 309.346 16.128C310.034 15.68 310.586 15.072 311.002 14.304C311.418 13.52 311.626 12.672 311.626 11.76C311.626 10.832 311.418 9.984 311.002 9.216C310.586 8.448 310.034 7.84 309.346 7.392C308.658 6.944 307.898 6.72 307.066 6.72C306.234 6.72 305.474 6.952 304.786 7.416C304.114 7.88 303.57 8.496 303.154 9.264C302.738 10.016 302.53 10.864 302.53 11.808ZM326.523 18H324.891V11.016C324.891 9.544 324.675 8.472 324.243 7.8C323.811 7.112 323.131 6.768 322.203 6.768C321.563 6.768 320.931 6.928 320.307 7.248C319.683 7.552 319.131 7.976 318.651 8.52C318.187 9.048 317.851 9.656 317.643 10.344V18H316.011V5.496H317.499V8.328C317.835 7.72 318.275 7.192 318.819 6.744C319.363 6.28 319.979 5.92 320.667 5.664C321.355 5.408 322.067 5.28 322.803 5.28C323.491 5.28 324.075 5.408 324.555 5.664C325.035 5.92 325.419 6.288 325.707 6.768C325.995 7.232 326.203 7.8 326.331 8.472C326.459 9.128 326.523 9.864 326.523 10.68V18ZM334.107 18.24C333.083 18.24 332.131 18.072 331.251 17.736C330.371 17.4 329.611 16.888 328.971 16.2L329.643 15.048C330.347 15.704 331.051 16.184 331.755 16.488C332.475 16.776 333.235 16.92 334.035 16.92C335.011 16.92 335.803 16.728 336.411 16.344C337.019 15.944 337.323 15.376 337.323 14.64C337.323 14.144 337.171 13.768 336.867 13.512C336.579 13.24 336.155 13.024 335.595 12.864C335.051 12.688 334.395 12.504 333.627 12.312C332.763 12.072 332.035 11.824 331.443 11.568C330.867 11.296 330.427 10.96 330.123 10.56C329.835 10.144 329.691 9.608 329.691 8.952C329.691 8.136 329.891 7.464 330.291 6.936C330.707 6.392 331.267 5.984 331.971 5.712C332.691 5.424 333.491 5.28 334.371 5.28C335.331 5.28 336.179 5.432 336.915 5.736C337.651 6.04 338.251 6.464 338.715 7.008L337.923 8.112C337.475 7.6 336.939 7.224 336.315 6.984C335.707 6.728 335.027 6.6 334.275 6.6C333.763 6.6 333.275 6.672 332.811 6.816C332.347 6.944 331.963 7.168 331.659 7.488C331.371 7.792 331.227 8.216 331.227 8.76C331.227 9.208 331.339 9.56 331.563 9.816C331.787 10.056 332.123 10.264 332.571 10.44C333.019 10.6 333.571 10.776 334.227 10.968C335.171 11.224 335.995 11.488 336.699 11.76C337.403 12.016 337.947 12.352 338.331 12.768C338.715 13.184 338.907 13.768 338.907 14.52C338.907 15.688 338.467 16.6 337.587 17.256C336.707 17.912 335.547 18.24 334.107 18.24ZM347.605 17.4C347.477 17.448 347.277 17.536 347.005 17.664C346.733 17.792 346.405 17.904 346.021 18C345.637 18.096 345.221 18.144 344.773 18.144C344.309 18.144 343.869 18.056 343.453 17.88C343.053 17.704 342.733 17.44 342.493 17.088C342.253 16.72 342.133 16.272 342.133 15.744V6.792H340.405V5.496H342.133V1.272H343.765V5.496H346.645V6.792H343.765V15.288C343.797 15.736 343.957 16.072 344.245 16.296C344.549 16.52 344.893 16.632 345.277 16.632C345.725 16.632 346.133 16.56 346.501 16.416C346.869 16.256 347.093 16.144 347.173 16.08L347.605 17.4ZM354.833 18.24C353.937 18.24 353.105 18.072 352.337 17.736C351.569 17.384 350.905 16.912 350.345 16.32C349.785 15.712 349.345 15.016 349.025 14.232C348.721 13.448 348.569 12.608 348.569 11.712C348.569 10.544 348.833 9.472 349.361 8.496C349.905 7.52 350.649 6.744 351.593 6.168C352.537 5.576 353.609 5.28 354.809 5.28C356.041 5.28 357.113 5.576 358.025 6.168C358.953 6.76 359.681 7.544 360.209 8.52C360.737 9.48 361.001 10.536 361.001 11.688C361.001 11.816 361.001 11.944 361.001 12.072C361.001 12.184 360.993 12.272 360.977 12.336H350.273C350.353 13.232 350.601 14.032 351.017 14.736C351.449 15.424 352.001 15.976 352.673 16.392C353.361 16.792 354.105 16.992 354.905 16.992C355.721 16.992 356.489 16.784 357.209 16.368C357.945 15.952 358.457 15.408 358.745 14.736L360.161 15.12C359.905 15.712 359.513 16.248 358.985 16.728C358.457 17.208 357.833 17.584 357.113 17.856C356.409 18.112 355.649 18.24 354.833 18.24ZM350.225 11.16H359.465C359.401 10.248 359.153 9.448 358.721 8.76C358.305 8.072 357.753 7.536 357.065 7.152C356.393 6.752 355.649 6.552 354.833 6.552C354.017 6.552 353.273 6.752 352.601 7.152C351.929 7.536 351.377 8.08 350.945 8.784C350.529 9.472 350.289 10.264 350.225 11.16ZM369.759 6.936C368.671 6.968 367.711 7.272 366.879 7.848C366.063 8.424 365.487 9.216 365.151 10.224V18H363.519V5.496H365.055V8.496C365.487 7.616 366.055 6.904 366.759 6.36C367.479 5.816 368.239 5.512 369.039 5.448C369.199 5.432 369.335 5.424 369.447 5.424C369.575 5.424 369.679 5.432 369.759 5.448V6.936ZM371.789 5.472V0.816H373.205V5.472H371.789ZM374.069 5.472V0.816H375.485V5.472H374.069ZM7.03719 54.24C6.06119 54.24 5.15719 53.992 4.32519 53.496C3.49319 52.984 2.84519 52.344 2.38119 51.576V54H0.917188V36.48H2.54919V44.112C3.10919 43.264 3.78119 42.584 4.56519 42.072C5.34919 41.544 6.26119 41.28 7.30119 41.28C8.18119 41.28 8.96519 41.464 9.65319 41.832C10.3572 42.2 10.9572 42.696 11.4532 43.32C11.9492 43.928 12.3252 44.624 12.5812 45.408C12.8372 46.176 12.9652 46.968 12.9652 47.784C12.9652 48.664 12.8132 49.488 12.5092 50.256C12.2212 51.024 11.8052 51.712 11.2612 52.32C10.7172 52.912 10.0852 53.384 9.36519 53.736C8.66119 54.072 7.88519 54.24 7.03719 54.24ZM6.65319 52.8C7.32519 52.8 7.94919 52.664 8.52519 52.392C9.10119 52.12 9.59719 51.744 10.0132 51.264C10.4292 50.784 10.7492 50.248 10.9732 49.656C11.1972 49.048 11.3092 48.424 11.3092 47.784C11.3092 46.904 11.1172 46.08 10.7332 45.312C10.3652 44.528 9.84519 43.904 9.17319 43.44C8.51719 42.96 7.74119 42.72 6.84519 42.72C6.20519 42.72 5.60519 42.864 5.04519 43.152C4.50119 43.44 4.01319 43.824 3.58119 44.304C3.16519 44.768 2.82119 45.28 2.54919 45.84V49.728C2.61319 50.16 2.78119 50.568 3.05319 50.952C3.32519 51.32 3.66119 51.64 4.06119 51.912C4.47719 52.184 4.90919 52.4 5.35719 52.56C5.80519 52.72 6.23719 52.8 6.65319 52.8ZM21.0577 54.24C20.1617 54.24 19.3297 54.072 18.5617 53.736C17.8097 53.384 17.1537 52.912 16.5937 52.32C16.0497 51.712 15.6257 51.024 15.3217 50.256C15.0177 49.472 14.8657 48.648 14.8657 47.784C14.8657 46.888 15.0177 46.056 15.3217 45.288C15.6257 44.504 16.0577 43.816 16.6177 43.224C17.1777 42.616 17.8337 42.144 18.5857 41.808C19.3537 41.456 20.1857 41.28 21.0817 41.28C21.9777 41.28 22.8017 41.456 23.5537 41.808C24.3057 42.144 24.9617 42.616 25.5217 43.224C26.0817 43.816 26.5137 44.504 26.8177 45.288C27.1217 46.056 27.2737 46.888 27.2737 47.784C27.2737 48.648 27.1217 49.472 26.8177 50.256C26.5137 51.024 26.0817 51.712 25.5217 52.32C24.9777 52.912 24.3217 53.384 23.5537 53.736C22.8017 54.072 21.9697 54.24 21.0577 54.24ZM16.5217 47.808C16.5217 48.736 16.7217 49.584 17.1217 50.352C17.5377 51.104 18.0897 51.704 18.7777 52.152C19.4657 52.584 20.2257 52.8 21.0577 52.8C21.8897 52.8 22.6497 52.576 23.3377 52.128C24.0257 51.68 24.5777 51.072 24.9937 50.304C25.4097 49.52 25.6177 48.672 25.6177 47.76C25.6177 46.832 25.4097 45.984 24.9937 45.216C24.5777 44.448 24.0257 43.84 23.3377 43.392C22.6497 42.944 21.8897 42.72 21.0577 42.72C20.2257 42.72 19.4657 42.952 18.7777 43.416C18.1057 43.88 17.5617 44.496 17.1457 45.264C16.7297 46.016 16.5217 46.864 16.5217 47.808ZM29.1631 47.784C29.1631 46.6 29.4031 45.52 29.8831 44.544C30.3791 43.552 31.0591 42.76 31.9231 42.168C32.7871 41.576 33.7711 41.28 34.8751 41.28C35.9151 41.28 36.8431 41.56 37.6591 42.12C38.4911 42.664 39.1391 43.328 39.6031 44.112V36.48H41.2351V52.032C41.2351 52.256 41.2831 52.424 41.3791 52.536C41.4751 52.632 41.6191 52.688 41.8111 52.704V54C41.4911 54.048 41.2431 54.064 41.0671 54.048C40.7311 54.032 40.4351 53.896 40.1791 53.64C39.9231 53.384 39.7951 53.104 39.7951 52.8V51.576C39.2991 52.392 38.6271 53.04 37.7791 53.52C36.9311 54 36.0511 54.24 35.1391 54.24C34.2751 54.24 33.4751 54.064 32.7391 53.712C32.0191 53.36 31.3871 52.88 30.8431 52.272C30.3151 51.664 29.8991 50.976 29.5951 50.208C29.3071 49.424 29.1631 48.616 29.1631 47.784ZM39.6031 49.704V45.84C39.3951 45.264 39.0591 44.744 38.5951 44.28C38.1311 43.8 37.6031 43.424 37.0111 43.152C36.4351 42.864 35.8591 42.72 35.2831 42.72C34.6111 42.72 34.0031 42.864 33.4591 43.152C32.9151 43.424 32.4431 43.8 32.0431 44.28C31.6591 44.76 31.3631 45.304 31.1551 45.912C30.9471 46.52 30.8431 47.144 30.8431 47.784C30.8431 48.456 30.9551 49.096 31.1791 49.704C31.4191 50.312 31.7551 50.856 32.1871 51.336C32.6191 51.8 33.1151 52.16 33.6751 52.416C34.2351 52.672 34.8431 52.8 35.4991 52.8C35.9151 52.8 36.3471 52.72 36.7951 52.56C37.2431 52.4 37.6671 52.184 38.0671 51.912C38.4831 51.624 38.8271 51.288 39.0991 50.904C39.3711 50.52 39.5391 50.12 39.6031 49.704ZM45.6528 57.84C45.8768 57.856 46.0928 57.864 46.3008 57.864C46.5088 57.88 46.6608 57.872 46.7568 57.84C46.9488 57.808 47.1328 57.696 47.3088 57.504C47.4848 57.312 47.6928 56.944 47.9328 56.4C48.1728 55.856 48.5088 55.056 48.9408 54L43.4928 41.496H45.2208L49.8048 52.32L54.0288 41.496H55.6608L49.1808 57.624C49.0688 57.928 48.9008 58.208 48.6768 58.464C48.4528 58.736 48.1728 58.944 47.8368 59.088C47.5168 59.248 47.1168 59.336 46.6368 59.352C46.4928 59.368 46.3408 59.368 46.1808 59.352C46.0368 59.352 45.8608 59.336 45.6528 59.304V57.84ZM64.0606 54.24C63.0846 54.24 62.1806 53.992 61.3486 53.496C60.5166 52.984 59.8686 52.344 59.4046 51.576V54H57.9406V36.48H59.5726V44.112C60.1326 43.264 60.8046 42.584 61.5886 42.072C62.3726 41.544 63.2846 41.28 64.3246 41.28C65.2046 41.28 65.9886 41.464 66.6766 41.832C67.3806 42.2 67.9806 42.696 68.4766 43.32C68.9726 43.928 69.3486 44.624 69.6046 45.408C69.8606 46.176 69.9886 46.968 69.9886 47.784C69.9886 48.664 69.8366 49.488 69.5326 50.256C69.2446 51.024 68.8286 51.712 68.2846 52.32C67.7406 52.912 67.1086 53.384 66.3886 53.736C65.6846 54.072 64.9086 54.24 64.0606 54.24ZM63.6766 52.8C64.3486 52.8 64.9726 52.664 65.5486 52.392C66.1246 52.12 66.6206 51.744 67.0366 51.264C67.4526 50.784 67.7726 50.248 67.9966 49.656C68.2206 49.048 68.3326 48.424 68.3326 47.784C68.3326 46.904 68.1406 46.08 67.7566 45.312C67.3886 44.528 66.8686 43.904 66.1966 43.44C65.5406 42.96 64.7646 42.72 63.8686 42.72C63.2286 42.72 62.6286 42.864 62.0686 43.152C61.5246 43.44 61.0366 43.824 60.6046 44.304C60.1886 44.768 59.8446 45.28 59.5726 45.84V49.728C59.6366 50.16 59.8046 50.568 60.0766 50.952C60.3486 51.32 60.6846 51.64 61.0846 51.912C61.5006 52.184 61.9326 52.4 62.3806 52.56C62.8286 52.72 63.2606 52.8 63.6766 52.8ZM72.6331 48.84V41.496H74.2651V48.552C74.2651 49.976 74.5051 51.04 74.9851 51.744C75.4811 52.448 76.2091 52.8 77.1691 52.8C77.8091 52.8 78.4251 52.664 79.0171 52.392C79.6251 52.104 80.1611 51.704 80.6251 51.192C81.0891 50.664 81.4411 50.056 81.6811 49.368V41.496H83.3131V52.032C83.3131 52.256 83.3611 52.424 83.4571 52.536C83.5531 52.632 83.6971 52.688 83.8891 52.704V54C83.6971 54.016 83.5451 54.024 83.4331 54.024C83.3211 54.04 83.2171 54.048 83.1211 54.048C82.8011 54.016 82.5211 53.888 82.2811 53.664C82.0571 53.44 81.9371 53.168 81.9211 52.848L81.8731 51.168C81.3291 52.128 80.5851 52.88 79.6411 53.424C78.7131 53.968 77.7051 54.24 76.6171 54.24C75.3051 54.24 74.3131 53.784 73.6411 52.872C72.9691 51.96 72.6331 50.616 72.6331 48.84ZM87.0031 54V41.496H88.6351V54H87.0031ZM87.0031 38.88V36.48H88.6351V38.88H87.0031ZM92.3017 36.48H93.9337V51.168C93.9337 51.792 94.0457 52.2 94.2697 52.392C94.4937 52.584 94.7657 52.68 95.0857 52.68C95.3737 52.68 95.6617 52.648 95.9497 52.584C96.2377 52.52 96.4857 52.456 96.6937 52.392L96.9817 53.712C96.6777 53.84 96.3017 53.944 95.8537 54.024C95.4217 54.104 95.0457 54.144 94.7257 54.144C93.9897 54.144 93.3977 53.928 92.9497 53.496C92.5177 53.064 92.3017 52.472 92.3017 51.72V36.48ZM97.9288 47.784C97.9288 46.6 98.1688 45.52 98.6488 44.544C99.1448 43.552 99.8248 42.76 100.689 42.168C101.553 41.576 102.537 41.28 103.641 41.28C104.681 41.28 105.609 41.56 106.425 42.12C107.257 42.664 107.905 43.328 108.369 44.112V36.48H110.001V52.032C110.001 52.256 110.049 52.424 110.145 52.536C110.241 52.632 110.385 52.688 110.577 52.704V54C110.257 54.048 110.009 54.064 109.833 54.048C109.497 54.032 109.201 53.896 108.945 53.64C108.689 53.384 108.561 53.104 108.561 52.8V51.576C108.065 52.392 107.393 53.04 106.545 53.52C105.697 54 104.817 54.24 103.905 54.24C103.041 54.24 102.241 54.064 101.505 53.712C100.785 53.36 100.153 52.88 99.6088 52.272C99.0808 51.664 98.6648 50.976 98.3608 50.208C98.0728 49.424 97.9288 48.616 97.9288 47.784ZM108.369 49.704V45.84C108.161 45.264 107.825 44.744 107.361 44.28C106.897 43.8 106.369 43.424 105.777 43.152C105.201 42.864 104.625 42.72 104.049 42.72C103.377 42.72 102.769 42.864 102.225 43.152C101.681 43.424 101.209 43.8 100.809 44.28C100.425 44.76 100.129 45.304 99.9208 45.912C99.7128 46.52 99.6088 47.144 99.6088 47.784C99.6088 48.456 99.7208 49.096 99.9448 49.704C100.185 50.312 100.521 50.856 100.953 51.336C101.385 51.8 101.881 52.16 102.441 52.416C103.001 52.672 103.609 52.8 104.265 52.8C104.681 52.8 105.113 52.72 105.561 52.56C106.009 52.4 106.433 52.184 106.833 51.912C107.249 51.624 107.593 51.288 107.865 50.904C108.137 50.52 108.305 50.12 108.369 49.704ZM119.098 54.24C118.202 54.24 117.37 54.072 116.602 53.736C115.834 53.384 115.17 52.912 114.61 52.32C114.05 51.712 113.61 51.016 113.29 50.232C112.986 49.448 112.834 48.608 112.834 47.712C112.834 46.544 113.098 45.472 113.626 44.496C114.17 43.52 114.914 42.744 115.858 42.168C116.802 41.576 117.874 41.28 119.074 41.28C120.306 41.28 121.378 41.576 122.29 42.168C123.218 42.76 123.946 43.544 124.474 44.52C125.002 45.48 125.266 46.536 125.266 47.688C125.266 47.816 125.266 47.944 125.266 48.072C125.266 48.184 125.258 48.272 125.242 48.336H114.538C114.618 49.232 114.866 50.032 115.282 50.736C115.714 51.424 116.266 51.976 116.938 52.392C117.626 52.792 118.37 52.992 119.17 52.992C119.986 52.992 120.754 52.784 121.474 52.368C122.21 51.952 122.722 51.408 123.01 50.736L124.426 51.12C124.17 51.712 123.778 52.248 123.25 52.728C122.722 53.208 122.098 53.584 121.378 53.856C120.674 54.112 119.914 54.24 119.098 54.24ZM114.49 47.16H123.73C123.666 46.248 123.418 45.448 122.986 44.76C122.57 44.072 122.018 43.536 121.33 43.152C120.658 42.752 119.914 42.552 119.098 42.552C118.282 42.552 117.538 42.752 116.866 43.152C116.194 43.536 115.642 44.08 115.21 44.784C114.794 45.472 114.554 46.264 114.49 47.16ZM134.024 42.936C132.936 42.968 131.976 43.272 131.144 43.848C130.328 44.424 129.752 45.216 129.416 46.224V54H127.784V41.496H129.32V44.496C129.752 43.616 130.32 42.904 131.024 42.36C131.744 41.816 132.504 41.512 133.304 41.448C133.464 41.432 133.6 41.424 133.712 41.424C133.84 41.424 133.944 41.432 134.024 41.448V42.936ZM140.302 54.24C139.278 54.24 138.326 54.072 137.446 53.736C136.566 53.4 135.806 52.888 135.166 52.2L135.838 51.048C136.542 51.704 137.246 52.184 137.95 52.488C138.67 52.776 139.43 52.92 140.23 52.92C141.206 52.92 141.998 52.728 142.606 52.344C143.214 51.944 143.518 51.376 143.518 50.64C143.518 50.144 143.366 49.768 143.062 49.512C142.774 49.24 142.35 49.024 141.79 48.864C141.246 48.688 140.59 48.504 139.822 48.312C138.958 48.072 138.23 47.824 137.638 47.568C137.062 47.296 136.622 46.96 136.318 46.56C136.03 46.144 135.886 45.608 135.886 44.952C135.886 44.136 136.086 43.464 136.486 42.936C136.902 42.392 137.462 41.984 138.166 41.712C138.886 41.424 139.686 41.28 140.566 41.28C141.526 41.28 142.374 41.432 143.11 41.736C143.846 42.04 144.446 42.464 144.91 43.008L144.118 44.112C143.67 43.6 143.134 43.224 142.51 42.984C141.902 42.728 141.222 42.6 140.47 42.6C139.958 42.6 139.47 42.672 139.006 42.816C138.542 42.944 138.158 43.168 137.854 43.488C137.566 43.792 137.422 44.216 137.422 44.76C137.422 45.208 137.534 45.56 137.758 45.816C137.982 46.056 138.318 46.264 138.766 46.44C139.214 46.6 139.766 46.776 140.422 46.968C141.366 47.224 142.19 47.488 142.894 47.76C143.598 48.016 144.142 48.352 144.526 48.768C144.91 49.184 145.102 49.768 145.102 50.52C145.102 51.688 144.662 52.6 143.782 53.256C142.902 53.912 141.742 54.24 140.302 54.24ZM168.982 41.496H170.59L165.214 54H163.798L161.182 47.784L158.59 54H157.174L151.798 41.496H153.382L157.942 52.32L160.246 46.68L158.134 41.52H159.598L161.182 45.576L162.79 41.52H164.23L162.142 46.68L164.446 52.32L168.982 41.496ZM183.273 54H181.641V47.016C181.641 45.608 181.393 44.552 180.897 43.848C180.401 43.128 179.689 42.768 178.761 42.768C178.153 42.768 177.545 42.928 176.937 43.248C176.345 43.552 175.817 43.976 175.353 44.52C174.905 45.048 174.585 45.656 174.393 46.344V54H172.761V36.48H174.393V44.328C174.889 43.4 175.577 42.664 176.457 42.12C177.353 41.56 178.305 41.28 179.313 41.28C180.033 41.28 180.641 41.408 181.137 41.664C181.649 41.92 182.057 42.296 182.361 42.792C182.681 43.272 182.913 43.84 183.057 44.496C183.201 45.136 183.273 45.864 183.273 46.68V54ZM192.081 54.24C191.185 54.24 190.353 54.072 189.585 53.736C188.833 53.384 188.177 52.912 187.617 52.32C187.073 51.712 186.649 51.024 186.345 50.256C186.041 49.472 185.889 48.648 185.889 47.784C185.889 46.888 186.041 46.056 186.345 45.288C186.649 44.504 187.081 43.816 187.641 43.224C188.201 42.616 188.857 42.144 189.609 41.808C190.377 41.456 191.209 41.28 192.105 41.28C193.001 41.28 193.825 41.456 194.577 41.808C195.329 42.144 195.985 42.616 196.545 43.224C197.105 43.816 197.537 44.504 197.841 45.288C198.145 46.056 198.297 46.888 198.297 47.784C198.297 48.648 198.145 49.472 197.841 50.256C197.537 51.024 197.105 51.712 196.545 52.32C196.001 52.912 195.345 53.384 194.577 53.736C193.825 54.072 192.993 54.24 192.081 54.24ZM187.545 47.808C187.545 48.736 187.745 49.584 188.145 50.352C188.561 51.104 189.113 51.704 189.801 52.152C190.489 52.584 191.249 52.8 192.081 52.8C192.913 52.8 193.673 52.576 194.361 52.128C195.049 51.68 195.601 51.072 196.017 50.304C196.433 49.52 196.641 48.672 196.641 47.76C196.641 46.832 196.433 45.984 196.017 45.216C195.601 44.448 195.049 43.84 194.361 43.392C193.673 42.944 192.913 42.72 192.081 42.72C191.249 42.72 190.489 42.952 189.801 43.416C189.129 43.88 188.585 44.496 188.169 45.264C187.753 46.016 187.545 46.864 187.545 47.808ZM212.544 54.24C211.648 54.24 210.816 54.072 210.048 53.736C209.28 53.384 208.616 52.912 208.056 52.32C207.496 51.712 207.056 51.016 206.736 50.232C206.432 49.448 206.28 48.608 206.28 47.712C206.28 46.544 206.544 45.472 207.072 44.496C207.616 43.52 208.36 42.744 209.304 42.168C210.248 41.576 211.32 41.28 212.52 41.28C213.752 41.28 214.824 41.576 215.736 42.168C216.664 42.76 217.392 43.544 217.92 44.52C218.448 45.48 218.712 46.536 218.712 47.688C218.712 47.816 218.712 47.944 218.712 48.072C218.712 48.184 218.704 48.272 218.688 48.336H207.984C208.064 49.232 208.312 50.032 208.728 50.736C209.16 51.424 209.712 51.976 210.384 52.392C211.072 52.792 211.816 52.992 212.616 52.992C213.432 52.992 214.2 52.784 214.92 52.368C215.656 51.952 216.168 51.408 216.456 50.736L217.872 51.12C217.616 51.712 217.224 52.248 216.696 52.728C216.168 53.208 215.544 53.584 214.824 53.856C214.12 54.112 213.36 54.24 212.544 54.24ZM207.936 47.16H217.176C217.112 46.248 216.864 45.448 216.432 44.76C216.016 44.072 215.464 43.536 214.776 43.152C214.104 42.752 213.36 42.552 212.544 42.552C211.728 42.552 210.984 42.752 210.312 43.152C209.64 43.536 209.088 44.08 208.656 44.784C208.24 45.472 208 46.264 207.936 47.16ZM224.622 54L219.558 41.496H221.262L225.534 52.368L229.83 41.496H231.438L226.374 54H224.622ZM238.677 54.24C237.781 54.24 236.949 54.072 236.181 53.736C235.413 53.384 234.749 52.912 234.189 52.32C233.629 51.712 233.189 51.016 232.869 50.232C232.565 49.448 232.413 48.608 232.413 47.712C232.413 46.544 232.677 45.472 233.205 44.496C233.749 43.52 234.493 42.744 235.437 42.168C236.381 41.576 237.453 41.28 238.653 41.28C239.885 41.28 240.957 41.576 241.869 42.168C242.797 42.76 243.525 43.544 244.053 44.52C244.581 45.48 244.845 46.536 244.845 47.688C244.845 47.816 244.845 47.944 244.845 48.072C244.845 48.184 244.837 48.272 244.821 48.336H234.117C234.197 49.232 234.445 50.032 234.861 50.736C235.293 51.424 235.845 51.976 236.517 52.392C237.205 52.792 237.949 52.992 238.749 52.992C239.565 52.992 240.333 52.784 241.053 52.368C241.789 51.952 242.301 51.408 242.589 50.736L244.005 51.12C243.749 51.712 243.357 52.248 242.829 52.728C242.301 53.208 241.677 53.584 240.957 53.856C240.253 54.112 239.493 54.24 238.677 54.24ZM234.069 47.16H243.309C243.245 46.248 242.997 45.448 242.565 44.76C242.149 44.072 241.597 43.536 240.909 43.152C240.237 42.752 239.493 42.552 238.677 42.552C237.861 42.552 237.117 42.752 236.445 43.152C235.773 43.536 235.221 44.08 234.789 44.784C234.373 45.472 234.133 46.264 234.069 47.16ZM253.603 42.936C252.515 42.968 251.555 43.272 250.723 43.848C249.907 44.424 249.331 45.216 248.995 46.224V54H247.363V41.496H248.899V44.496C249.331 43.616 249.899 42.904 250.603 42.36C251.323 41.816 252.083 41.512 252.883 41.448C253.043 41.432 253.179 41.424 253.291 41.424C253.419 41.424 253.523 41.432 253.603 41.448V42.936ZM261.403 36.48H263.035V51.168C263.035 51.792 263.147 52.2 263.371 52.392C263.595 52.584 263.867 52.68 264.187 52.68C264.475 52.68 264.763 52.648 265.051 52.584C265.339 52.52 265.587 52.456 265.795 52.392L266.083 53.712C265.779 53.84 265.403 53.944 264.955 54.024C264.523 54.104 264.147 54.144 263.827 54.144C263.091 54.144 262.499 53.928 262.051 53.496C261.619 53.064 261.403 52.472 261.403 51.72V36.48ZM267.87 54V41.496H269.502V54H267.87ZM267.87 38.88V36.48H269.502V38.88H267.87ZM276.817 54L271.753 41.496H273.457L277.729 52.368L282.025 41.496H283.633L278.569 54H276.817ZM290.872 54.24C289.976 54.24 289.144 54.072 288.376 53.736C287.608 53.384 286.944 52.912 286.384 52.32C285.824 51.712 285.384 51.016 285.064 50.232C284.76 49.448 284.608 48.608 284.608 47.712C284.608 46.544 284.872 45.472 285.4 44.496C285.944 43.52 286.688 42.744 287.632 42.168C288.576 41.576 289.648 41.28 290.848 41.28C292.08 41.28 293.152 41.576 294.064 42.168C294.992 42.76 295.72 43.544 296.248 44.52C296.776 45.48 297.04 46.536 297.04 47.688C297.04 47.816 297.04 47.944 297.04 48.072C297.04 48.184 297.032 48.272 297.016 48.336H286.312C286.392 49.232 286.64 50.032 287.056 50.736C287.488 51.424 288.04 51.976 288.712 52.392C289.4 52.792 290.144 52.992 290.944 52.992C291.76 52.992 292.528 52.784 293.248 52.368C293.984 51.952 294.496 51.408 294.784 50.736L296.2 51.12C295.944 51.712 295.552 52.248 295.024 52.728C294.496 53.208 293.872 53.584 293.152 53.856C292.448 54.112 291.688 54.24 290.872 54.24ZM286.264 47.16H295.504C295.44 46.248 295.192 45.448 294.76 44.76C294.344 44.072 293.792 43.536 293.104 43.152C292.432 42.752 291.688 42.552 290.872 42.552C290.056 42.552 289.312 42.752 288.64 43.152C287.968 43.536 287.416 44.08 286.984 44.784C286.568 45.472 286.328 46.264 286.264 47.16ZM298.718 47.784C298.718 46.6 298.958 45.52 299.438 44.544C299.934 43.552 300.614 42.76 301.478 42.168C302.342 41.576 303.326 41.28 304.43 41.28C305.47 41.28 306.398 41.56 307.214 42.12C308.046 42.664 308.694 43.328 309.158 44.112V36.48H310.79V52.032C310.79 52.256 310.838 52.424 310.934 52.536C311.03 52.632 311.174 52.688 311.366 52.704V54C311.046 54.048 310.798 54.064 310.622 54.048C310.286 54.032 309.99 53.896 309.734 53.64C309.478 53.384 309.35 53.104 309.35 52.8V51.576C308.854 52.392 308.182 53.04 307.334 53.52C306.486 54 305.606 54.24 304.694 54.24C303.83 54.24 303.03 54.064 302.294 53.712C301.574 53.36 300.942 52.88 300.398 52.272C299.87 51.664 299.454 50.976 299.15 50.208C298.862 49.424 298.718 48.616 298.718 47.784ZM309.158 49.704V45.84C308.95 45.264 308.614 44.744 308.15 44.28C307.686 43.8 307.158 43.424 306.566 43.152C305.99 42.864 305.414 42.72 304.838 42.72C304.166 42.72 303.558 42.864 303.014 43.152C302.47 43.424 301.998 43.8 301.598 44.28C301.214 44.76 300.918 45.304 300.71 45.912C300.502 46.52 300.398 47.144 300.398 47.784C300.398 48.456 300.51 49.096 300.734 49.704C300.974 50.312 301.31 50.856 301.742 51.336C302.174 51.8 302.67 52.16 303.23 52.416C303.79 52.672 304.398 52.8 305.054 52.8C305.47 52.8 305.902 52.72 306.35 52.56C306.798 52.4 307.222 52.184 307.622 51.912C308.038 51.624 308.382 51.288 308.654 50.904C308.926 50.52 309.094 50.12 309.158 49.704ZM314.248 54V51.648H315.664V54H314.248Z" fill="white"/>
</svg>
