<svg width="233" height="88" viewBox="0 0 233 88" fill="none" xmlns="http://www.w3.org/2000/svg">
<path d="M2.38419e-07 16.7C1.53333 16.4333 3.16667 16.2 4.9 16C6.7 15.7333 8.46667 15.5333 10.2 15.4C12 15.2667 13.7333 15.1667 15.4 15.1C17.0667 15.0333 18.6 15 20 15C23.2667 15 26.4667 15.3 29.6 15.9C32.8 16.5 35.6333 17.5333 38.1 19C40.6333 20.4667 42.6333 22.5 44.1 25.1C45.6333 27.6333 46.4 30.8333 46.4 34.7C46.4 40.4333 45.0667 45.1 42.4 48.7C39.7333 52.3 36.1667 54.8 31.7 56.2L36.6 59.3L52.6 86H36.8L20.9 58.6L13.7 57.3V86H2.38419e-07V16.7ZM21 27.2C19.6 27.2 18.2 27.2333 16.8 27.3C15.4667 27.3667 14.4333 27.5 13.7 27.7V48H19.5C23.3 48 26.3333 47.1333 28.6 45.4C30.8667 43.6667 32 40.8 32 36.8C32 33.8 31.0667 31.4667 29.2 29.8C27.3333 28.0667 24.6 27.2 21 27.2ZM98.1563 16H111.156V61.2C111.156 65.7333 110.556 69.6333 109.356 72.9C108.156 76.1667 106.49 78.8667 104.356 81C102.223 83.1333 99.6229 84.7 96.5563 85.7C93.4896 86.7 90.1229 87.2 86.4563 87.2C68.7229 87.2 59.8563 79.1 59.8563 62.9V16H73.5563V60.2C73.5563 62.9333 73.7896 65.2667 74.2563 67.2C74.7896 69.0667 75.5896 70.6 76.6563 71.8C77.7229 72.9333 79.0563 73.7667 80.6563 74.3C82.2563 74.7667 84.1229 75 86.2563 75C90.4563 75 93.4896 73.8333 95.3563 71.5C97.2229 69.1667 98.1563 65.4 98.1563 60.2V16ZM67.4563 6.2C67.4563 4.46666 68.0563 3.06666 69.2563 2C70.4563 0.933328 72.3896 0.399993 75.0563 0.399993C77.6563 0.399993 79.5563 0.933328 80.7563 2C81.9563 3.06666 82.5563 4.46666 82.5563 6.2C82.5563 7.93333 81.9563 9.33333 80.7563 10.4C79.5563 11.4 77.6563 11.9 75.0563 11.9C72.3896 11.9 70.4563 11.4 69.2563 10.4C68.0563 9.33333 67.4563 7.93333 67.4563 6.2ZM88.8563 6.2C88.8563 4.46666 89.4563 3.06666 90.6563 2C91.8563 0.933328 93.7563 0.399993 96.3563 0.399993C99.0229 0.399993 100.956 0.933328 102.156 2C103.356 3.06666 103.956 4.46666 103.956 6.2C103.956 7.93333 103.356 9.33333 102.156 10.4C100.956 11.4 99.0229 11.9 96.3563 11.9C93.7563 11.9 91.8563 11.4 90.6563 10.4C89.4563 9.33333 88.8563 7.93333 88.8563 6.2ZM162.152 56.7H136.552V86H122.852V16H136.552V44.5H162.152V16H175.852V86H162.152V56.7ZM232.288 86H187.988V16H201.688V73.8H232.288V86Z" fill="white"/>
</svg>
